ffmpeg version N-91141-gc24d247e2c Copyright (c) 2000-2018 the FFmpeg developers
  built with gcc 7.3.0 (GCC)
  configuration: --enable-gpl --enable-version3 --enable-sdl2 --enable-bzlib --enable-fontconfig --enable-gnutls --enable-iconv --enable-libass --enable-libbluray --enable-libfreetype --enable-libmp3lame --enable-libopencore-amrnb --enable-libopencore-amrwb --enable-libopenjpeg --enable-libopus --enable-libshine --enable-libsnappy --enable-libsoxr --enable-libtheora --enable-libtwolame --enable-libvpx --enable-libwavpack --enable-libwebp --enable-libx264 --enable-libx265 --enable-libxml2 --enable-libzimg --enable-lzma --enable-zlib --enable-gmp --enable-libvidstab --enable-libvorbis --enable-libvo-amrwbenc --enable-libmysofa --enable-libspeex --enable-libxvid --enable-libaom --enable-libmfx --enable-amf --enable-ffnvcodec --enable-cuvid --enable-d3d11va --enable-nvenc --enable-nvdec --enable-dxva2 --enable-avisynth
  libavutil      56. 18.102 / 56. 18.102
  libavcodec     58. 19.102 / 58. 19.102
  libavformat    58. 16.100 / 58. 16.100
  libavdevice    58.  4.100 / 58.  4.100
  libavfilter     7. 24.100 /  7. 24.100
  libswscale      5.  2.100 /  5.  2.100
  libswresample   3.  2.100 /  3.  2.100
  libpostproc    55.  2.100 / 55.  2.100
Splitting the commandline.
Reading option '-v' ... matched as option 'v' (set logging level) with argument 'debug'.
Reading option '-nostdin' ... matched as option 'stdin' (enable or disable interaction on standard input) with argument 0.
Reading option '-progress' ... matched as option 'progress' (write program-readable progress information) with argument 'C:/Users/tfrit/AppData/Local/Temp/KritaFFmpegProgress.ut9076'.
Reading option '-r' ... matched as option 'r' (set frame rate (Hz value, fraction or abbreviation)) with argument '14'.
Reading option '-start_number' ... matched as AVOption 'start_number' with argument '0'.
Reading option '-i' ... matched as input url with argument 'C:/Users/tfrit/Documents/castleDefense/Assets/Resources/orb/orb%04d.png'.
Reading option '-i' ... matched as input url with argument 'C:/Users/tfrit/Documents/castleDefense/Assets/Resources/orb/palette.png'.
Reading option '-lavfi' ... matched as option 'lavfi' (create a complex filtergraph) with argument '[0:v][1:v] paletteuse'.
Reading option '-y' ... matched as option 'y' (overwrite output files) with argument '1'.
Reading option 'C:/Users/tfrit/Documents/castleDefense/Assets/Resources/orb/orb.gif' ... matched as output url.
Finished splitting the commandline.
Parsing a group of options: global .
Applying option v (set logging level) with argument debug.
Applying option nostdin (enable or disable interaction on standard input) with argument 0.
Applying option progress (write program-readable progress information) with argument C:/Users/tfrit/AppData/Local/Temp/KritaFFmpegProgress.ut9076.
[file @ 000002a81475b780] Setting default whitelist 'file,crypto'
Applying option lavfi (create a complex filtergraph) with argument [0:v][1:v] paletteuse.
Applying option y (overwrite output files) with argument 1.
Successfully parsed a group of options.
Parsing a group of options: input url C:/Users/tfrit/Documents/castleDefense/Assets/Resources/orb/orb%04d.png.
Applying option r (set frame rate (Hz value, fraction or abbreviation)) with argument 14.
Successfully parsed a group of options.
Opening an input file: C:/Users/tfrit/Documents/castleDefense/Assets/Resources/orb/orb%04d.png.
[image2 @ 000002a81479bb80] Opening 'C:/Users/tfrit/Documents/castleDefense/Assets/Resources/orb/orb0000.png' for reading
[file @ 000002a81479ff80] Setting default whitelist 'file,crypto'
[AVIOContext @ 000002a8147a80c0] Statistics: 1959 bytes read, 0 seeks
[image2 @ 000002a81479bb80] Opening 'C:/Users/tfrit/Documents/castleDefense/Assets/Resources/orb/orb0001.png' for reading
[file @ 000002a8147a8c00] Setting default whitelist 'file,crypto'
[AVIOContext @ 000002a8147a8d00] Statistics: 1950 bytes read, 0 seeks
[image2 @ 000002a81479bb80] Opening 'C:/Users/tfrit/Documents/castleDefense/Assets/Resources/orb/orb0002.png' for reading
[file @ 000002a8147a8cc0] Setting default whitelist 'file,crypto'
[AVIOContext @ 000002a8147ba440] Statistics: 1870 bytes read, 0 seeks
[image2 @ 000002a81479bb80] Opening 'C:/Users/tfrit/Documents/castleDefense/Assets/Resources/orb/orb0003.png' for reading
[file @ 000002a8147badc0] Setting default whitelist 'file,crypto'
[AVIOContext @ 000002a8147ba440] Statistics: 1802 bytes read, 0 seeks
[image2 @ 000002a81479bb80] Opening 'C:/Users/tfrit/Documents/castleDefense/Assets/Resources/orb/orb0004.png' for reading
[file @ 000002a8147bb740] Setting default whitelist 'file,crypto'
[AVIOContext @ 000002a8147ba440] Statistics: 1908 bytes read, 0 seeks
[image2 @ 000002a81479bb80] Opening 'C:/Users/tfrit/Documents/castleDefense/Assets/Resources/orb/orb0005.png' for reading
[file @ 000002a8147bb940] Setting default whitelist 'file,crypto'
[AVIOContext @ 000002a8147ba440] Statistics: 2030 bytes read, 0 seeks
[image2 @ 000002a81479bb80] Opening 'C:/Users/tfrit/Documents/castleDefense/Assets/Resources/orb/orb0006.png' for reading
[file @ 000002a8147bbb40] Setting default whitelist 'file,crypto'
[AVIOContext @ 000002a8147ba440] Statistics: 1993 bytes read, 0 seeks
[image2 @ 000002a81479bb80] Opening 'C:/Users/tfrit/Documents/castleDefense/Assets/Resources/orb/orb0007.png' for reading
[file @ 000002a8147a1a00] Setting default whitelist 'file,crypto'
[AVIOContext @ 000002a8147ba440] Statistics: 1954 bytes read, 0 seeks
[image2 @ 000002a81479bb80] Opening 'C:/Users/tfrit/Documents/castleDefense/Assets/Resources/orb/orb0008.png' for reading
[file @ 000002a8147bbbc0] Setting default whitelist 'file,crypto'
[AVIOContext @ 000002a8147ba440] Statistics: 1855 bytes read, 0 seeks
[image2 @ 000002a81479bb80] Opening 'C:/Users/tfrit/Documents/castleDefense/Assets/Resources/orb/orb0009.png' for reading
[file @ 000002a8147bbd80] Setting default whitelist 'file,crypto'
[AVIOContext @ 000002a8147ba440] Statistics: 1800 bytes read, 0 seeks
[image2 @ 000002a81479bb80] Opening 'C:/Users/tfrit/Documents/castleDefense/Assets/Resources/orb/orb0010.png' for reading
[file @ 000002a8147bbd80] Setting default whitelist 'file,crypto'
[AVIOContext @ 000002a8147ba440] Statistics: 1764 bytes read, 0 seeks
[image2 @ 000002a81479bb80] Opening 'C:/Users/tfrit/Documents/castleDefense/Assets/Resources/orb/orb0011.png' for reading
[file @ 000002a8147a7cc0] Setting default whitelist 'file,crypto'
[AVIOContext @ 000002a8147ba440] Statistics: 1846 bytes read, 0 seeks
[image2 @ 000002a81479bb80] Opening 'C:/Users/tfrit/Documents/castleDefense/Assets/Resources/orb/orb0012.png' for reading
[file @ 000002a8147a7e40] Setting default whitelist 'file,crypto'
[AVIOContext @ 000002a8147ba440] Statistics: 1897 bytes read, 0 seeks
[image2 @ 000002a81479bb80] Opening 'C:/Users/tfrit/Documents/castleDefense/Assets/Resources/orb/orb0013.png' for reading
[file @ 000002a8147a7e40] Setting default whitelist 'file,crypto'
[AVIOContext @ 000002a8147ba440] Statistics: 2004 bytes read, 0 seeks
[image2 @ 000002a81479bb80] Opening 'C:/Users/tfrit/Documents/castleDefense/Assets/Resources/orb/orb0014.png' for reading
[file @ 000002a8147a7e40] Setting default whitelist 'file,crypto'
[AVIOContext @ 000002a8147ba440] Statistics: 1951 bytes read, 0 seeks
Input #0, image2, from 'C:/Users/tfrit/Documents/castleDefense/Assets/Resources/orb/orb%04d.png':
  Duration: 00:00:00.60, start: 0.000000, bitrate: N/A
    Stream #0:0, 15, 1/25: Video: png, 1 reference frame, rgba(pc), 64x64 [SAR 2834:2834 DAR 1:1], 0/1, 25 fps, 25 tbr, 25 tbn, 25 tbc
Successfully opened the file.
Parsing a group of options: input url C:/Users/tfrit/Documents/castleDefense/Assets/Resources/orb/palette.png.
Successfully parsed a group of options.
Opening an input file: C:/Users/tfrit/Documents/castleDefense/Assets/Resources/orb/palette.png.
[NULL @ 000002a81479ee00] Opening 'C:/Users/tfrit/Documents/castleDefense/Assets/Resources/orb/palette.png' for reading
[file @ 000002a8147a8040] Setting default whitelist 'file,crypto'
[png_pipe @ 000002a81479ee00] Format png_pipe probed with size=2048 and score=99
[png_pipe @ 000002a81479ee00] Before avformat_find_stream_info() pos: 0 bytes read:833 seeks:0 nb_streams:1
[png_pipe @ 000002a81479ee00] After avformat_find_stream_info() pos: 833 bytes read:833 seeks:0 frames:1
Input #1, png_pipe, from 'C:/Users/tfrit/Documents/castleDefense/Assets/Resources/orb/palette.png':
  Duration: N/A, bitrate: N/A
    Stream #1:0, 1, 1/25: Video: png, 1 reference frame, rgba(pc), 16x16 [SAR 1:1 DAR 1:1], 0/1, 25 tbr, 25 tbn, 25 tbc
Successfully opened the file.
Parsing a group of options: output url C:/Users/tfrit/Documents/castleDefense/Assets/Resources/orb/orb.gif.
Successfully parsed a group of options.
Opening an output file: C:/Users/tfrit/Documents/castleDefense/Assets/Resources/orb/orb.gif.
[file @ 000002a8147ac940] Setting default whitelist 'file,crypto'
Successfully opened the file.
detected 8 logical cores
Stream mapping:
  Stream #0:0 (png) -> paletteuse:default
  Stream #1:0 (png) -> paletteuse:palette
  paletteuse -> Stream #0:0 (gif)
cur_dts is invalid (this is harmless if it occurs once at the start per stream)
    Last message repeated 489 times
[image2 @ 000002a81479bb80] Thread message queue blocking; consider raising the thread_queue_size option (current value: 8)
cur_dts is invalid (this is harmless if it occurs once at the start per stream)
    Last message repeated 8 times
[graph 0 input from stream 0:0 @ 000002a8147b90c0] Setting 'video_size' to value '64x64'
[graph 0 input from stream 0:0 @ 000002a8147b90c0] Setting 'pix_fmt' to value '26'
[graph 0 input from stream 0:0 @ 000002a8147b90c0] Setting 'time_base' to value '1/14'
[graph 0 input from stream 0:0 @ 000002a8147b90c0] Setting 'pixel_aspect' to value '2834/2834'
[graph 0 input from stream 0:0 @ 000002a8147b90c0] Setting 'sws_param' to value 'flags=2'
[graph 0 input from stream 0:0 @ 000002a8147b90c0] Setting 'frame_rate' to value '14/1'
[graph 0 input from stream 0:0 @ 000002a8147b90c0] w:64 h:64 pixfmt:rgba tb:1/14 fr:14/1 sar:2834/2834 sws_param:flags=2
[graph 0 input from stream 1:0 @ 000002a814cb9f80] Setting 'video_size' to value '16x16'
[graph 0 input from stream 1:0 @ 000002a814cb9f80] Setting 'pix_fmt' to value '26'
[graph 0 input from stream 1:0 @ 000002a814cb9f80] Setting 'time_base' to value '1/25'
[graph 0 input from stream 1:0 @ 000002a814cb9f80] Setting 'pixel_aspect' to value '1/1'
[graph 0 input from stream 1:0 @ 000002a814cb9f80] Setting 'sws_param' to value 'flags=2'
[graph 0 input from stream 1:0 @ 000002a814cb9f80] Setting 'frame_rate' to value '25/1'
[graph 0 input from stream 1:0 @ 000002a814cb9f80] w:16 h:16 pixfmt:rgba tb:1/25 fr:25/1 sar:1/1 sws_param:flags=2
[format @ 000002a8147bbd40] Setting 'pix_fmts' to value 'rgb8|bgr8|rgb4_byte|bgr4_byte|gray|pal8'
[auto_scaler_0 @ 000002a814cd5ac0] w:iw h:ih flags:'bilinear' interl:0
[Parsed_paletteuse_0 @ 000002a8147a8cc0] auto-inserting filter 'auto_scaler_0' between the filter 'graph 0 input from stream 0:0' and the filter 'Parsed_paletteuse_0'
[auto_scaler_1 @ 000002a814ce0cc0] w:iw h:ih flags:'bilinear' interl:0
[Parsed_paletteuse_0 @ 000002a8147a8cc0] auto-inserting filter 'auto_scaler_1' between the filter 'graph 0 input from stream 1:0' and the filter 'Parsed_paletteuse_0'
[AVFilterGraph @ 000002a8147afbc0] query_formats: 5 queried, 2 merged, 2 already done, 0 delayed
[swscaler @ 000002a814807fc0] Forcing full internal H chroma due to input having non subsampled chroma
[auto_scaler_0 @ 000002a814cd5ac0] w:64 h:64 fmt:rgba sar:2834/2834 -> w:64 h:64 fmt:bgra sar:1/1 flags:0x2
[swscaler @ 000002a814814f40] Forcing full internal H chroma due to input having non subsampled chroma
[auto_scaler_1 @ 000002a814ce0cc0] w:16 h:16 fmt:rgba sar:1/1 -> w:16 h:16 fmt:bgra sar:1/1 flags:0x2
[Parsed_paletteuse_0 @ 000002a8147a8cc0] [framesync @ 000002a814cf2f88] Selected 1/350 time base
[Parsed_paletteuse_0 @ 000002a8147a8cc0] [framesync @ 000002a814cf2f88] Sync level 2
Output #0, gif, to 'C:/Users/tfrit/Documents/castleDefense/Assets/Resources/orb/orb.gif':
  Metadata:
    encoder         : Lavf58.16.100
    Stream #0:0, 0, 1/100: Video: gif, 1 reference frame, pal8, 64x64 [SAR 1:1 DAR 1:1], 0/1, q=2-31, 200 kb/s, 14 fps, 100 tbn, 14 tbc (default)
    Metadata:
      encoder         : Lavc58.19.102 gif
Clipping frame in rate conversion by 0.000008
[gif @ 000002a8147abd00] 19x20 image at pos (25;19) [area:64x64]
[gif @ 000002a8147abd00] 19x18 image at pos (25;21) [area:64x64]
[gif @ 000002a8147abd00] 15x16 image at pos (26;23) [area:64x64]
[gif @ 000002a8147abd00] 20x18 image at pos (23;22) [area:64x64]
[gif @ 000002a8147abd00] 27x10 image at pos (17;31) [area:64x64]
[gif @ 000002a8147abd00] 27x12 image at pos (17;29) [area:64x64]
[gif @ 000002a8147abd00] 26x11 image at pos (18;28) [area:64x64]
[gif @ 000002a8147abd00] 23x9 image at pos (20;30) [area:64x64]
[gif @ 000002a8147abd00] 19x11 image at pos (21;28) [area:64x64]
[gif @ 000002a8147abd00] 15x17 image at pos (25;22) [area:64x64]
[gif @ 000002a8147abd00] 14x20 image at pos (26;19) [area:64x64]
[gif @ 000002a8147abd00] 16x20 image at pos (26;19) [area:64x64]
[gif @ 000002a8147abd00] 20x21 image at pos (24;18) [area:64x64]
[gif @ 000002a8147abd00] 22x21 image at pos (22;18) [area:64x64]
[Parsed_paletteuse_0 @ 000002a8147a8cc0] [framesync @ 000002a814cf2f88] Sync level 0
[out_0_0 @ 000002a814cc03c0] EOF on sink link out_0_0:default.
No more output streams to write to, finishing.
frame=   15 fps=0.0 q=-0.0 Lsize=       4kB time=00:00:01.01 bitrate=  30.3kbits/s speed= 135x    
[AVIOContext @ 000002a81479b8c0] Statistics: 0 seeks, 1 writeouts
video:3kB audio:0kB subtitle:0kB other streams:0kB global headers:0kB muxing overhead: 31.671251%
Input file #0 (C:/Users/tfrit/Documents/castleDefense/Assets/Resources/orb/orb%04d.png):
  Input stream #0:0 (video): 15 packets read (28583 bytes); 15 frames decoded; 
  Total: 15 packets (28583 bytes) demuxed
Input file #1 (C:/Users/tfrit/Documents/castleDefense/Assets/Resources/orb/palette.png):
  Input stream #1:0 (video): 1 packets read (833 bytes); 1 frames decoded; 
  Total: 1 packets (833 bytes) demuxed
Output file #0 (C:/Users/tfrit/Documents/castleDefense/Assets/Resources/orb/orb.gif):
  Output stream #0:0 (video): 15 frames encoded; 15 packets muxed (2908 bytes); 
  Total: 15 packets (2908 bytes) muxed
16 frames successfully decoded, 0 decoding errors
[AVIOContext @ 000002a8147aca40] Statistics: 0 seeks, 2 writeouts
[AVIOContext @ 000002a8147ba440] Statistics: 833 bytes read, 0 seeks
